<svg xmlns="http://www.w3.org/2000/svg" xmlns:xlink="http://www.w3.org/1999/xlink" width="1920" zoomAndPan="magnify" viewBox="0 0 1440 809.999993" height="1080" preserveAspectRatio="xMidYMid meet" version="1.0"><defs><g/></defs><g fill="#92e0ff" fill-opacity="1"><g transform="translate(305.953116, 637.874988)"><g><path d="M 137.796875 7.796875 C 107.035156 7.796875 78.757812 2.054688 52.96875 -9.421875 C 27.1875 -20.910156 6.0625 -37.269531 -10.40625 -58.5 L 48.09375 -128.703125 C 72.800781 -95.335938 100.96875 -78.65625 132.59375 -78.65625 C 175.5 -78.65625 196.953125 -103.785156 196.953125 -154.046875 L 196.953125 -370.5 L 37.046875 -370.5 L 37.046875 -455 L 301.59375 -455 L 301.59375 -159.90625 C 301.59375 -104 287.726562 -62.070312 260 -34.125 C 232.269531 -6.175781 191.535156 7.796875 137.796875 7.796875 Z M 137.796875 7.796875 "/></g></g></g><g fill="#92e0ff" fill-opacity="1"><g transform="translate(657.599854, 637.874988)"><g><path d="M 271.703125 7.796875 C 225.335938 7.796875 183.410156 -2.273438 145.921875 -22.421875 C 108.441406 -42.578125 78.972656 -70.53125 57.515625 -106.28125 C 36.066406 -142.03125 25.34375 -182.4375 25.34375 -227.5 C 25.34375 -272.5625 36.066406 -312.96875 57.515625 -348.71875 C 78.972656 -384.46875 108.441406 -412.414062 145.921875 -432.5625 C 183.410156 -452.71875 225.550781 -462.796875 272.34375 -462.796875 C 311.78125 -462.796875 347.421875 -455.863281 379.265625 -442 C 411.117188 -428.132812 437.878906 -408.203125 459.546875 -382.203125 L 391.953125 -319.796875 C 361.179688 -355.328125 323.046875 -373.09375 277.546875 -373.09375 C 249.378906 -373.09375 224.242188 -366.914062 202.140625 -354.5625 C 180.046875 -342.21875 162.820312 -324.992188 150.46875 -302.890625 C 138.125 -280.796875 131.953125 -255.664062 131.953125 -227.5 C 131.953125 -199.332031 138.125 -174.195312 150.46875 -152.09375 C 162.820312 -130 180.046875 -112.773438 202.140625 -100.421875 C 224.242188 -88.078125 249.378906 -81.90625 277.546875 -81.90625 C 323.046875 -81.90625 361.179688 -99.882812 391.953125 -135.84375 L 459.546875 -73.453125 C 437.878906 -47.015625 411.007812 -26.863281 378.9375 -13 C 346.875 0.863281 311.128906 7.796875 271.703125 7.796875 Z M 271.703125 7.796875 "/></g></g></g></svg>